<?xml version="1.0" encoding="utf-8"?>
<!-- Generator: Adobe Illustrator 25.0.0, SVG Export Plug-In . SVG Version: 6.00 Build 0)  -->
<svg version="1.1" id="Camada_1" xmlns="http://www.w3.org/2000/svg" xmlns:xlink="http://www.w3.org/1999/xlink" x="0px" y="0px"
	 viewBox="0 0 216.1 79.9" style="enable-background:new 0 0 216.1 79.9;" xml:space="preserve">
<style type="text/css">
	.st0{fill:url(#Retângulo_466_1_);}
	.st1{fill:url(#Caminho_201_1_);}
	.st2{fill:url(#Caminho_202_1_);}
	.st3{fill:url(#Caminho_203_1_);}
	.st4{fill:url(#Caminho_204_1_);}
	.st5{fill:url(#Caminho_205_1_);}
	.st6{fill:url(#Caminho_206_1_);}
	.st7{fill:url(#Retângulo_467_1_);}
</style>
<g id="logo_cor" transform="translate(-72.843 -61.174)">
	<g id="Grupo_617" transform="translate(144.531 73.16)">
		
			<linearGradient id="Retângulo_466_1_" gradientUnits="userSpaceOnUse" x1="-1283.7086" y1="426.7196" x2="-1223.3917" y2="427.6125" gradientTransform="matrix(3.7547 -3.7547 3.7547 3.7547 3160.5137 -6301.9727)">
			<stop  offset="0" style="stop-color:#550E33"/>
			<stop  offset="1" style="stop-color:#FF4F5D"/>
		</linearGradient>
		<polygon id="Retângulo_466" class="st0" points="26.5,35.2 30.2,31.5 34,35.2 30.2,39.1 		"/>
		<g id="Grupo_616" transform="translate(0 0)">
			
				<linearGradient id="Caminho_201_1_" gradientUnits="userSpaceOnUse" x1="-1283.7319" y1="224.2799" x2="-1272.297" y2="224.4019" gradientTransform="matrix(28.0133 0 0 38.8374 35870.0547 -8692.3545)">
				<stop  offset="0" style="stop-color:#550E33"/>
				<stop  offset="1" style="stop-color:#FF4F5D"/>
			</linearGradient>
			<path id="Caminho_201" class="st1" d="M28,24.5c0,2-0.3,4-1.1,5.9c-0.7,1.7-1.7,3.3-3,4.6c-1.3,1.3-2.8,2.3-4.4,3
				c-1.7,0.7-3.6,1.1-5.5,1.1c-3.7,0-7.3-1.4-9.9-4.1c-1.3-1.3-2.3-2.9-3-4.6c-0.8-2-1.1-3.9-1.1-5.9V0.1h7v12.8
				c0.4-0.5,0.9-0.9,1.4-1.3s1.1-0.7,1.7-0.9c0.6-0.2,1.3-0.4,1.9-0.6c0.6-0.1,1.3-0.2,1.9-0.2c1.9,0,3.7,0.4,5.5,1.1
				c1.7,0.7,3.2,1.7,4.4,3c1.3,1.3,2.3,2.9,3,4.6C27.7,20.5,28,22.5,28,24.5z M21,24.5c0-1-0.2-2-0.6-3c-0.3-0.9-0.9-1.7-1.5-2.4
				c-0.6-0.7-1.4-1.2-2.2-1.6c-0.9-0.4-1.8-0.6-2.7-0.6s-1.9,0.2-2.7,0.6c-0.8,0.4-1.6,1-2.2,1.7S8,20.7,7.6,21.6s-0.5,1.8-0.5,2.8
				s0.2,2,0.5,2.9s0.8,1.7,1.5,2.4c0.6,0.7,1.4,1.2,2.2,1.6c1.7,0.8,3.7,0.8,5.4,0c0.8-0.4,1.6-0.9,2.2-1.6s1.2-1.5,1.5-2.4
				C20.8,26.5,21,25.5,21,24.5L21,24.5z"/>
			
				<linearGradient id="Caminho_202_1_" gradientUnits="userSpaceOnUse" x1="-1284.8928" y1="229.5854" x2="-1273.4579" y2="229.7484" gradientTransform="matrix(28.0132 0 0 28.9857 35902.4297 -6632.2676)">
				<stop  offset="0" style="stop-color:#550E33"/>
				<stop  offset="1" style="stop-color:#FF4F5D"/>
			</linearGradient>
			<path id="Caminho_202" class="st2" d="M60.5,24.5c0,2-0.4,3.9-1.1,5.7c-0.7,1.7-1.7,3.3-3,4.6c-1.3,1.3-2.8,2.3-4.4,3
				c-3.5,1.5-7.4,1.5-10.9,0c-3.4-1.5-6.1-4.2-7.5-7.6c-0.7-1.8-1.1-3.8-1.1-5.7c0-2,0.4-3.9,1.1-5.8c0.7-1.7,1.7-3.3,3-4.6
				c1.3-1.3,2.8-2.3,4.5-3s3.6-1.1,5.4-1.1c1.9,0,3.7,0.3,5.5,1c1.7,0.7,3.2,1.7,4.4,2.9c1.3,1.3,2.3,2.9,3,4.6
				C60.1,20.4,60.5,22.4,60.5,24.5z M53.4,24.5c0-1-0.2-2.1-0.6-3.1c-0.3-0.9-0.9-1.7-1.5-2.4s-1.4-1.2-2.2-1.5
				c-1.7-0.7-3.7-0.7-5.4,0c-0.8,0.3-1.6,0.9-2.2,1.5c-0.6,0.7-1.1,1.5-1.5,2.4c-0.4,1-0.6,2-0.5,3.1c0,1,0.2,2,0.5,2.9
				s0.8,1.7,1.5,2.4c0.6,0.7,1.4,1.2,2.2,1.6c0.8,0.4,1.8,0.6,2.7,0.6s1.8-0.2,2.7-0.5c0.8-0.3,1.6-0.9,2.2-1.5
				c0.7-0.7,1.2-1.5,1.5-2.4C53.3,26.5,53.4,25.5,53.4,24.5z"/>
			
				<linearGradient id="Caminho_203_1_" gradientUnits="userSpaceOnUse" x1="-1280.5411" y1="230.141" x2="-1267.0859" y2="230.309" gradientTransform="matrix(23.8082 0 0 28.2188 30395.8125 -6472.4185)">
				<stop  offset="0" style="stop-color:#550E33"/>
				<stop  offset="1" style="stop-color:#FF4F5D"/>
			</linearGradient>
			<path id="Caminho_203" class="st3" d="M64.9,11.8c1.7-0.5,3.4-0.8,5.1-1.1c2.2-0.3,4.4-0.5,6.6-0.5c2-0.1,4,0.3,5.8,0.9
				c1.4,0.5,2.7,1.4,3.7,2.6c0.9,1.2,1.6,2.5,1.9,4c0.4,1.7,0.6,3.4,0.6,5.1v15.6h-7.8V23.8c0-2.5-0.3-4.3-1-5.3s-1.9-1.6-3.7-1.6
				c-0.6,0-1.2,0-1.8,0.1c-0.6,0.1-1.1,0.1-1.6,0.1v21.3h-7.8C64.9,38.4,64.9,11.8,64.9,11.8z"/>
			
				<linearGradient id="Caminho_204_1_" gradientUnits="userSpaceOnUse" x1="-1281.7278" y1="230.1205" x2="-1268.2738" y2="230.2885" gradientTransform="matrix(23.808 0 0 28.22 30423.8125 -6472.0386)">
				<stop  offset="0" style="stop-color:#550E33"/>
				<stop  offset="1" style="stop-color:#FF4F5D"/>
			</linearGradient>
			<path id="Caminho_204" class="st4" d="M117,37.5c-1.7,0.5-3.4,0.8-5.1,1.1c-2.2,0.3-4.4,0.5-6.6,0.5c-2,0.1-4-0.3-5.8-0.9
				c-1.4-0.5-2.7-1.5-3.7-2.6c-0.9-1.2-1.6-2.6-1.9-4.1c-0.4-1.7-0.6-3.4-0.6-5.2V10.8h7.8v14.4c-0.1,1.9,0.2,3.7,1,5.5
				c0.7,1.1,1.9,1.7,3.7,1.7c0.6,0,1.2,0,1.8-0.1c0.6-0.1,1.2-0.1,1.7-0.2V10.8h7.8L117,37.5z"/>
			
				<linearGradient id="Caminho_205_1_" gradientUnits="userSpaceOnUse" x1="-1281.5006" y1="230.7801" x2="-1267.4917" y2="230.9531" gradientTransform="matrix(22.866 0 0 27.363 29211.252 -6293.4541)">
				<stop  offset="0" style="stop-color:#550E33"/>
				<stop  offset="1" style="stop-color:#FF4F5D"/>
			</linearGradient>
			<path id="Caminho_205" class="st5" d="M144.3,38.4h-22.9L133,18h-11.5v-7h22.9l-11.5,20.4h11.5L144.3,38.4L144.3,38.4z"/>
		</g>
	</g>
	<g id="Grupo_619" transform="translate(72.843 61.174)">
		<g id="Grupo_618" transform="translate(0 0)">
			
				<linearGradient id="Caminho_206_1_" gradientUnits="userSpaceOnUse" x1="-1012.8503" y1="216.2313" x2="-1007.2562" y2="216.2903" gradientTransform="matrix(57.257 0 0 79.9 57972.8398 -17237.9004)">
				<stop  offset="0" style="stop-color:#550E33"/>
				<stop  offset="1" style="stop-color:#FF4F5D"/>
			</linearGradient>
			<path id="Caminho_206" class="st6" d="M0,0v44.7c0,19.4,15.8,35.2,35.2,35.2h22V0H0z M52.3,5v9.2c-1.1-1-2.5-1.8-3.9-2.4
				c-1.8-0.7-3.7-1.1-5.6-1.1s-3.8,0.4-5.5,1.1s-3.2,1.8-4.5,3.1c-2,2.1-3.4,4.7-3.9,7.5c-0.2-1-0.5-1.9-0.8-2.8
				c-0.7-1.7-1.7-3.3-3-4.7c-1.3-1.3-2.8-2.4-4.5-3.1c-1.8-0.7-3.6-1.1-5.6-1.1c-0.7,0-1.3,0.1-2,0.2s-1.3,0.3-2,0.6
				c-0.6,0.2-1.2,0.6-1.8,0.9c-0.5,0.4-1,0.8-1.4,1.3V5H52.3z M49.4,25.6c0,1.1-0.2,2.1-0.6,3.1c-0.3,0.9-0.9,1.7-1.5,2.4
				c-0.6,0.7-1.4,1.2-2.3,1.5c-0.9,0.4-1.8,0.6-2.7,0.5c-0.9,0-1.9-0.2-2.7-0.6c-0.8-0.4-1.6-0.9-2.2-1.6s-1.2-1.5-1.5-2.4
				c-0.4-1-0.6-2-0.5-3c0-1.1,0.2-2.1,0.5-3.1c0.3-0.9,0.8-1.7,1.5-2.4c0.6-0.7,1.4-1.2,2.2-1.5c1.8-0.7,3.7-0.7,5.5,0
				c0.8,0.3,1.6,0.9,2.3,1.5c0.7,0.7,1.2,1.5,1.5,2.4C49.2,23.5,49.4,24.5,49.4,25.6z M22,25.6c0,1-0.2,2-0.6,3
				c-0.4,0.9-0.9,1.7-1.5,2.4c-0.6,0.7-1.4,1.2-2.3,1.6c-1.7,0.8-3.7,0.8-5.5,0c-0.8-0.4-1.6-0.9-2.3-1.6c-0.7-0.7-1.2-1.5-1.5-2.4
				c-0.4-1-0.6-2-0.5-3c0-1,0.2-1.9,0.5-2.8c0.4-0.9,0.9-1.7,1.5-2.4s1.4-1.3,2.3-1.7c0.9-0.4,1.8-0.6,2.7-0.6s1.9,0.2,2.7,0.6
				c0.8,0.4,1.6,0.9,2.3,1.6c0.7,0.7,1.2,1.5,1.5,2.4C21.8,23.5,22,24.5,22,25.6L22,25.6z M35.2,75C18.5,75,5,61.5,5,44.8v-8.6
				c2.7,2.6,6.2,4.1,10,4.1c1.9,0,3.8-0.3,5.6-1.1c1.7-0.7,3.2-1.7,4.5-3s2.3-2.9,3-4.6c0.4-0.9,0.7-1.9,0.8-2.9
				c0.9,4.7,4,8.6,8.4,10.5c3.5,1.5,7.5,1.5,11.1,0c1.4-0.6,2.7-1.5,3.9-2.5V75H35.2z"/>
			
				<linearGradient id="Retângulo_467_1_" gradientUnits="userSpaceOnUse" x1="-986.6013" y1="410.9937" x2="-930.6863" y2="411.8217" gradientTransform="matrix(4.0503 -4.0503 4.0503 4.0503 2325.2834 -5587.5503)">
				<stop  offset="0" style="stop-color:#550E33"/>
				<stop  offset="1" style="stop-color:#FF4F5D"/>
			</linearGradient>
			<polygon id="Retângulo_467" class="st7" points="24.9,39.1 28.9,35.1 33,39.1 28.9,43.2 			"/>
		</g>
	</g>
</g>
</svg>
