<?xml version="1.0" encoding="utf-8"?>
<!-- Generator: Adobe Illustrator 25.0.0, SVG Export Plug-In . SVG Version: 6.00 Build 0)  -->
<svg version="1.1" id="Camada_1" xmlns="http://www.w3.org/2000/svg" xmlns:xlink="http://www.w3.org/1999/xlink" x="0px" y="0px"
	 viewBox="0 0 166.2 61.5" style="enable-background:new 0 0 166.2 61.5;" xml:space="preserve">
<style type="text/css">
	.st0{fill:#FFFFFF;}
</style>
<path id="logo_branco" class="st0" d="M75.6,36.3l2.9-2.9l2.9,2.9l-2.9,2.9L75.6,36.3z M76.7,28c0,1.6-0.3,3.1-0.8,4.5
	c-0.5,1.3-1.3,2.5-2.3,3.5s-2.1,1.8-3.4,2.3c-1.3,0.5-2.8,0.8-4.2,0.8c-2.9,0-5.6-1.1-7.6-3.1c-1-1-1.8-2.2-2.3-3.5
	c-0.6-1.4-0.9-2.9-0.8-4.5V9.2h5.4v9.9c0.3-0.4,0.7-0.7,1.1-1c0.4-0.3,0.9-0.5,1.3-0.7c0.5-0.2,1-0.3,1.5-0.4s1-0.1,1.5-0.1
	c1.4,0,2.9,0.3,4.2,0.8s2.4,1.3,3.4,2.3s1.8,2.2,2.3,3.5C76.5,24.9,76.8,26.4,76.7,28z M71.3,28c0-0.8-0.1-1.6-0.4-2.3
	c-0.3-0.7-0.7-1.3-1.2-1.8S68.6,23,68,22.7c-0.7-0.3-1.4-0.4-2.1-0.4c-0.7,0-1.4,0.2-2.1,0.5c-0.6,0.3-1.2,0.8-1.7,1.3
	s-0.9,1.2-1.1,1.8c-0.3,0.7-0.4,1.4-0.4,2.1c0,0.8,0.1,1.5,0.4,2.3c0.3,0.7,0.6,1.3,1.1,1.8s1.1,0.9,1.7,1.2c1.3,0.6,2.8,0.6,4.2,0
	c0.6-0.3,1.2-0.7,1.7-1.2s0.9-1.1,1.2-1.8C71.2,29.5,71.3,28.7,71.3,28z M101.7,28c0,1.5-0.3,3-0.8,4.4c-0.5,1.3-1.3,2.5-2.3,3.5
	s-2.1,1.8-3.4,2.3c-2.7,1.1-5.7,1.1-8.4,0c-2.6-1.1-4.7-3.2-5.7-5.9c-0.6-1.4-0.9-2.9-0.8-4.4c0-1.5,0.3-3,0.8-4.5
	c0.5-1.3,1.3-2.5,2.3-3.5s2.1-1.8,3.4-2.3c1.3-0.6,2.7-0.9,4.2-0.8c1.4,0,2.9,0.3,4.2,0.8s2.4,1.3,3.4,2.3s1.8,2.2,2.3,3.5
	C101.5,24.8,101.7,26.4,101.7,28z M96.3,28c0-0.8-0.1-1.6-0.4-2.4c-0.3-0.7-0.7-1.3-1.2-1.8s-1.1-0.9-1.7-1.2
	c-1.3-0.5-2.8-0.5-4.2,0c-0.6,0.3-1.2,0.7-1.7,1.2s-0.9,1.1-1.1,1.8c-0.3,0.8-0.4,1.6-0.4,2.4s0.1,1.5,0.4,2.3
	c0.3,0.7,0.6,1.3,1.1,1.8s1.1,0.9,1.7,1.2c0.7,0.3,1.4,0.4,2.1,0.4c0.7,0,1.4-0.1,2.1-0.4c0.6-0.3,1.2-0.7,1.7-1.2s0.9-1.1,1.2-1.8
	C96.2,29.6,96.3,28.8,96.3,28L96.3,28z M105.2,18.2c1.3-0.4,2.6-0.6,4-0.8c1.7-0.3,3.4-0.4,5.1-0.4c1.5,0,3.1,0.2,4.5,0.7
	c1.1,0.4,2.1,1.1,2.8,2s1.2,1.9,1.5,3.1c0.3,1.3,0.5,2.6,0.4,4v12h-6V27.4c0.1-1.4-0.2-2.8-0.8-4.1c-0.7-0.9-1.8-1.3-2.9-1.2
	c-0.4,0-0.9,0-1.4,0.1c-0.5,0-0.9,0.1-1.3,0.1v16.4h-6L105.2,18.2z M145.2,38c-1.3,0.4-2.6,0.6-4,0.8c-1.7,0.3-3.4,0.4-5.1,0.4
	c-1.5,0-3.1-0.2-4.5-0.7c-1.1-0.4-2.1-1.1-2.8-2s-1.2-2-1.5-3.1c-0.3-1.3-0.5-2.6-0.4-4V17.5h6v11.1c-0.1,1.4,0.2,2.9,0.8,4.2
	c0.6,0.9,1.7,1.4,2.9,1.3c0.4,0,0.9,0,1.4-0.1c0.5,0,0.9-0.1,1.3-0.1V17.5h6L145.2,38z M166.2,38.7h-17.6l8.9-15.7h-8.9v-5.4h17.6
	l-8.9,15.7h8.9V38.7z M0,0v34.4c0,15,12.1,27.1,27.1,27.1h17V0H0z M40.3,3.8v7.1c-0.9-0.8-1.9-1.4-3-1.8c-1.4-0.5-2.8-0.8-4.3-0.8
	s-2.9,0.3-4.3,0.9c-1.3,0.6-2.5,1.4-3.5,2.4c-1.5,1.6-2.6,3.6-3,5.8c-0.1-0.7-0.4-1.5-0.6-2.2c-0.5-1.3-1.3-2.6-2.3-3.6
	s-2.2-1.8-3.5-2.4c-1.4-0.6-2.8-0.9-4.3-0.9c-0.5,0-1,0.1-1.5,0.2S9,8.7,8.5,8.9C8,9.1,7.6,9.3,7.1,9.6c-0.4,0.3-0.8,0.6-1.1,1V3.8
	H40.3z M38,19.6c0,0.8-0.1,1.6-0.4,2.4c-0.3,0.7-0.7,1.3-1.2,1.8s-1.1,0.9-1.7,1.2c-0.7,0.3-1.4,0.4-2.1,0.4c-0.7,0-1.4-0.1-2.1-0.5
	c-0.7-0.3-1.2-0.7-1.7-1.2s-0.9-1.2-1.2-1.8c-0.3-0.7-0.4-1.5-0.4-2.3s0.1-1.6,0.4-2.4c0.3-0.7,0.7-1.3,1.2-1.8s1.1-0.9,1.7-1.2
	c1.4-0.5,2.9-0.5,4.2,0c0.7,0.3,1.2,0.7,1.7,1.2s0.9,1.2,1.2,1.8C37.9,17.9,38,18.8,38,19.6z M17,19.6c0,0.8-0.1,1.6-0.4,2.3
	c-0.3,0.7-0.7,1.3-1.2,1.8s-1.1,0.9-1.7,1.2c-1.3,0.6-2.9,0.6-4.2,0c-0.7-0.3-1.2-0.7-1.7-1.2s-0.9-1.2-1.2-1.8
	c-0.3-0.7-0.4-1.5-0.4-2.3c0-0.7,0.1-1.5,0.4-2.2c0.3-0.7,0.7-1.3,1.2-1.9c0.5-0.5,1.1-1,1.7-1.3c0.7-0.3,1.4-0.5,2.1-0.5
	c0.7,0,1.4,0.1,2.1,0.4c0.7,0.3,1.2,0.7,1.7,1.2s0.9,1.2,1.2,1.9C16.8,18,17,18.8,17,19.6L17,19.6z M27.1,57.6
	c-12.9,0-23.3-10.4-23.3-23.3v-6.5c2,2,4.8,3.1,7.7,3.1c1.5,0,2.9-0.3,4.3-0.8c1.3-0.5,2.5-1.3,3.5-2.3s1.8-2.2,2.3-3.6
	c-0.6-0.3-0.8-1-0.5-1.6s1-0.8,1.6-0.5s0.8,1,0.5,1.6c-0.1,0.1-0.2,0.3-0.3,0.4c1.1,2.7,3.2,4.8,5.8,6c2.7,1.2,5.8,1.2,8.5,0
	c1.1-0.5,2.1-1.1,3-1.9v29.5L27.1,57.6z M19.1,30l3.1-3.1l3.1,3.1l-3.1,3.1L19.1,30z M75.6,36.3l2.9-2.9l2.9,2.9l-2.9,2.9L75.6,36.3
	z M76.7,28c0,1.6-0.3,3.1-0.8,4.5c-0.5,1.3-1.3,2.5-2.3,3.5s-2.1,1.8-3.4,2.3c-1.3,0.5-2.8,0.8-4.2,0.8c-2.9,0-5.6-1.1-7.6-3.1
	c-1-1-1.8-2.2-2.3-3.5c-0.6-1.4-0.9-2.9-0.8-4.5V9.2h5.4v9.9c0.3-0.4,0.7-0.7,1.1-1c0.4-0.3,0.9-0.5,1.3-0.7c0.5-0.2,1-0.3,1.5-0.4
	s1-0.1,1.5-0.1c1.4,0,2.9,0.3,4.2,0.8s2.4,1.3,3.4,2.3s1.8,2.2,2.3,3.5C76.5,24.9,76.8,26.4,76.7,28z M71.3,28
	c0-0.8-0.1-1.6-0.4-2.3c-0.3-0.7-0.7-1.3-1.2-1.8S68.6,23,68,22.7c-0.7-0.3-1.4-0.4-2.1-0.4c-0.7,0-1.4,0.2-2.1,0.5
	c-0.6,0.3-1.2,0.8-1.7,1.3s-0.9,1.2-1.1,1.8c-0.3,0.7-0.4,1.4-0.4,2.1c0,0.8,0.1,1.5,0.4,2.3c0.3,0.7,0.6,1.3,1.1,1.8
	s1.1,0.9,1.7,1.2c1.3,0.6,2.8,0.6,4.2,0c0.6-0.3,1.2-0.7,1.7-1.2s0.9-1.1,1.2-1.8C71.2,29.5,71.3,28.7,71.3,28z M101.7,28
	c0,1.5-0.3,3-0.8,4.4c-0.5,1.3-1.3,2.5-2.3,3.5s-2.1,1.8-3.4,2.3c-2.7,1.1-5.7,1.1-8.4,0c-2.6-1.1-4.7-3.2-5.7-5.9
	c-0.6-1.4-0.9-2.9-0.8-4.4c0-1.5,0.3-3,0.8-4.5c0.5-1.3,1.3-2.5,2.3-3.5s2.1-1.8,3.4-2.3c1.3-0.6,2.7-0.9,4.2-0.8
	c1.4,0,2.9,0.3,4.2,0.8s2.4,1.3,3.4,2.3s1.8,2.2,2.3,3.5C101.5,24.8,101.7,26.4,101.7,28z M96.3,28c0-0.8-0.1-1.6-0.4-2.4
	c-0.3-0.7-0.7-1.3-1.2-1.8s-1.1-0.9-1.7-1.2c-1.3-0.5-2.8-0.5-4.2,0c-0.6,0.3-1.2,0.7-1.7,1.2s-0.9,1.1-1.1,1.8
	c-0.3,0.8-0.4,1.6-0.4,2.4s0.1,1.5,0.4,2.3c0.3,0.7,0.6,1.3,1.1,1.8s1.1,0.9,1.7,1.2c0.7,0.3,1.4,0.4,2.1,0.4c0.7,0,1.4-0.1,2.1-0.4
	c0.6-0.3,1.2-0.7,1.7-1.2s0.9-1.1,1.2-1.8C96.2,29.6,96.3,28.8,96.3,28L96.3,28z M105.2,18.2c1.3-0.4,2.6-0.6,4-0.8
	c1.7-0.3,3.4-0.4,5.1-0.4c1.5,0,3.1,0.2,4.5,0.7c1.1,0.4,2.1,1.1,2.8,2s1.2,1.9,1.5,3.1c0.3,1.3,0.5,2.6,0.4,4v12h-6V27.4
	c0.1-1.4-0.2-2.8-0.8-4.1c-0.7-0.9-1.8-1.3-2.9-1.2c-0.4,0-0.9,0-1.4,0.1c-0.5,0-0.9,0.1-1.3,0.1v16.4h-6L105.2,18.2z M145.2,38
	c-1.3,0.4-2.6,0.6-4,0.8c-1.7,0.3-3.4,0.4-5.1,0.4c-1.5,0-3.1-0.2-4.5-0.7c-1.1-0.4-2.1-1.1-2.8-2s-1.2-2-1.5-3.1
	c-0.3-1.3-0.5-2.6-0.4-4V17.5h6v11.1c-0.1,1.4,0.2,2.9,0.8,4.2c0.6,0.9,1.7,1.4,2.9,1.3c0.4,0,0.9,0,1.4-0.1c0.5,0,0.9-0.1,1.3-0.1
	V17.5h6L145.2,38z M166.2,38.7h-17.6l8.9-15.7h-8.9v-5.4h17.6l-8.9,15.7h8.9V38.7z M0,0v34.4c0,15,12.1,27.1,27.1,27.1h17V0H0z
	 M40.3,3.8v7.1c-0.9-0.8-1.9-1.4-3-1.8c-1.4-0.5-2.8-0.8-4.3-0.8s-2.9,0.3-4.3,0.9c-1.3,0.6-2.5,1.4-3.5,2.4c-1.5,1.6-2.6,3.6-3,5.8
	c-0.1-0.7-0.4-1.5-0.6-2.2c-0.5-1.3-1.3-2.6-2.3-3.6s-2.2-1.8-3.5-2.4c-1.4-0.6-2.8-0.9-4.3-0.9c-0.5,0-1,0.1-1.5,0.2S9,8.7,8.5,8.9
	C8,9.1,7.6,9.3,7.1,9.6c-0.4,0.3-0.8,0.6-1.1,1V3.8H40.3z M38,19.6c0,0.8-0.1,1.6-0.4,2.4c-0.3,0.7-0.7,1.3-1.2,1.8
	s-1.1,0.9-1.7,1.2c-0.7,0.3-1.4,0.4-2.1,0.4c-0.7,0-1.4-0.1-2.1-0.5c-0.7-0.3-1.2-0.7-1.7-1.2s-0.9-1.2-1.2-1.8
	c-0.3-0.7-0.4-1.5-0.4-2.3s0.1-1.6,0.4-2.4c0.3-0.7,0.7-1.3,1.2-1.8s1.1-0.9,1.7-1.2c1.4-0.5,2.9-0.5,4.2,0c0.7,0.3,1.2,0.7,1.7,1.2
	s0.9,1.2,1.2,1.8C37.9,17.9,38,18.8,38,19.6z M17,19.6c0,0.8-0.1,1.6-0.4,2.3c-0.3,0.7-0.7,1.3-1.2,1.8s-1.1,0.9-1.7,1.2
	c-1.3,0.6-2.9,0.6-4.2,0c-0.7-0.3-1.2-0.7-1.7-1.2s-0.9-1.2-1.2-1.8c-0.3-0.7-0.4-1.5-0.4-2.3c0-0.7,0.1-1.5,0.4-2.2
	c0.3-0.7,0.7-1.3,1.2-1.9c0.5-0.5,1.1-1,1.7-1.3c0.7-0.3,1.4-0.5,2.1-0.5c0.7,0,1.4,0.1,2.1,0.4c0.7,0.3,1.2,0.7,1.7,1.2
	s0.9,1.2,1.2,1.9C16.8,18,17,18.8,17,19.6L17,19.6z M27.1,57.6c-12.9,0-23.3-10.4-23.3-23.3v-6.5c2,2,4.8,3.1,7.7,3.1
	c1.5,0,2.9-0.3,4.3-0.8c1.3-0.5,2.5-1.3,3.5-2.3s1.8-2.2,2.3-3.6c-0.6-0.3-0.8-1-0.5-1.6s1-0.8,1.6-0.5s0.8,1,0.5,1.6
	c-0.1,0.1-0.2,0.3-0.3,0.4c1.1,2.7,3.2,4.8,5.8,6c2.7,1.2,5.8,1.2,8.5,0c1.1-0.5,2.1-1.1,3-1.9v29.5L27.1,57.6z M19.1,30l3.1-3.1
	l3.1,3.1l-3.1,3.1L19.1,30z"/>
</svg>
